<?xml version="1.0" encoding="utf-8"?>
<!-- Generator: Adobe Illustrator 19.2.1, SVG Export Plug-In . SVG Version: 6.00 Build 0)  -->
<svg version="1.1" id="NCF" xmlns="http://www.w3.org/2000/svg" xmlns:xlink="http://www.w3.org/1999/xlink" x="0px" y="0px"
	 viewBox="0 0 566.9 396.6" style="enable-background:new 0 0 566.9 396.6;" xml:space="preserve">
<style type="text/css">
	.st0{fill:#FFFFFF;}
</style>
<title>NCF_BLACK_RGB</title>
<path class="st0" d="M2.6,0h12.8l28.2,42.2h0.4L43.7,0h15.5v72.5H46.6L18.1,30.1h-0.5l0.4,42.4H2.6V0z M89.1,72.5h15.5V44.5l23-44.6
	h-16.2l-14,29.7H97L83.5,0H66.2l22.9,44.9L89.1,72.5L89.1,72.5z M30.6,89C11.2,89,0,103.3,0,126.5S10.6,164,30.6,164
	c15.6,0,25.3-9,27.4-25.8H43c-1.6,8.4-5.4,12.5-12.4,12.5c-9.4,0-14.9-8.5-14.9-24.2s5.5-24.2,14.9-24.2c6.5,0,10.8,3.9,12.4,12.5
	H58C55.9,98.1,46.4,89,30.6,89 M92,104.9h0.4l7.9,30H84L92,104.9z M60.8,162.8h15.8l4.1-15.4h23l4,15.4H124l-21.9-72.5H82.9
	L60.8,162.8z M156.6,102.6c7.4,0,11.7,3.9,11.7,10.2c0,6.5-4.1,11.1-11.7,11.1h-9.5v-21.3H156.6z M131.6,162.8h15.5v-26.4h5.5
	c11,0,13.5,5.2,15.4,14.7l2.2,11.7h15.6l-2.7-13.6c-2.1-10.6-5.2-16.9-12.5-19.3v-0.4c8.8-2.4,13.5-8.4,13.5-18.4
	c0-12-8.6-20.8-26.4-20.8h-26V162.8z M198.3,162.8h43.6v-13.1h-28.1V90.3h-15.5L198.3,162.8L198.3,162.8z M246.4,142.3
	c0,13.9,9.4,21.7,26.3,21.7c17.3,0,27.2-9.3,27.2-22.9c0-26.7-36.6-16.9-36.6-31.9c0-5.9,4.5-8.5,10-8.5s9.8,2.5,9.8,8.5h15.1
	c0-12.8-9.6-20.2-24.9-20.2c-15.8,0-25.6,9.2-25.6,21.7c0,27.2,36.4,17.4,36.4,32.2c0,6.3-4.6,9.4-11.4,9.4c-6.5,0-11.3-3.2-11.3-10
	H246.4L246.4,142.3z M339.7,131.1c7.4,0,11.3,3.7,11.3,9.5c0,6-3.6,9.9-11.4,9.9h-11.9v-19.4H339.7L339.7,131.1z M338,102.6
	c7.4,0,10.5,3.3,10.5,8c0,5.6-3.4,9.2-10.8,9.2h-10.1v-17.2H338L338,102.6z M312.2,162.8h29.7c16,0,24.8-9.1,24.8-21.4
	c0-8.4-5.2-15.3-14.2-16.9v-0.4c8.1-2.1,11.6-8.1,11.6-14.9c0-11.9-7.9-18.9-23.9-18.9h-27.9L312.2,162.8L312.2,162.8z M377.4,162.8
	h48.3v-13h-32.8v-18h26v-12.1h-26v-16.4h31.6v-13h-47.1L377.4,162.8L377.4,162.8z M462.2,102.6c7.4,0,11.7,3.9,11.7,10.2
	c0,6.5-4.1,11.1-11.7,11.1h-9.4v-21.3H462.2L462.2,102.6z M437.2,162.8h15.5v-26.4h5.5c11,0,13.5,5.2,15.4,14.7l2.2,11.7h15.6
	l-2.7-13.6c-2.1-10.6-5.2-16.9-12.5-19.3v-0.4c8.7-2.4,13.5-8.4,13.5-18.4c0-12-8.6-20.8-26.5-20.8h-25.9L437.2,162.8L437.2,162.8z
	 M2.6,253.1h15.5v-26.2h24.6v-12.4H18.1v-20.9h30.2v-13H2.6V253.1L2.6,253.1z M83.9,241.1c-9.5,0-15.5-8.4-15.5-24.2
	c0-15.8,6-24.2,15.5-24.2s15.4,8.5,15.4,24.2C99.3,232.5,93.4,241.1,83.9,241.1 M83.9,179.3c-19.5,0-31.2,14-31.2,37.5
	s11.7,37.5,31.2,37.5c19.3,0,31.1-14.1,31.1-37.5C114.9,193.4,103.1,179.3,83.9,179.3 M126.5,253.1H142l-0.4-42.4h0.4l28.4,42.4
	h12.6v-72.5h-15.5l0.4,42.2h-0.4l-28.3-42.2h-12.8L126.5,253.1L126.5,253.1z M221.6,193.5c13.9,0,19,10.4,19,23.2
	c0,12.4-5.1,23.4-19,23.4H215v-46.6H221.6z M199.5,253.1h23c23,0,34-15.5,34-36.4s-11.1-36.2-34.1-36.2h-23L199.5,253.1L199.5,253.1
	z M268,253.1h48.2v-13h-32.8v-18h26V210h-26v-16.4h31.6v-13H268L268,253.1L268,253.1z M321.1,193.6h17.7v59.4h15.5v-59.4H372v-13.1
	h-50.9L321.1,193.6L321.1,193.6z M566.9,122.7h-35v11.7h12.2c-0.7,10.7-5.3,16.3-13.3,16.3c-9.5,0-15.5-8.6-15.5-24.2
	c0-15.9,6.3-24.2,15.9-24.2c7.2,0,11.2,4,12.6,10.3H559C557,98.2,547.3,89,531.3,89c-19.6,0-31.6,14-31.6,37.5v0.2
	c0,23.2,11.9,37.3,30.9,37.3c16.3,0,26.6-10.2,28-29.6h8.4L566.9,122.7L566.9,122.7z M3.2,396.2h3.2l-0.2-18.9h0.2L18,396.2h2.9
	v-25.5h-3.2l0.2,18.9h-0.2L6.2,370.6H3.2V396.2L3.2,396.2z M29.9,396.2h15v-2.9H33.1v-8.6h9.1v-2.9h-9.1v-8.2h11.4v-2.9H29.9
	L29.9,396.2L29.9,396.2z M56.3,396.2h4.3l4.6-21.4h0.2l4.6,21.4h4.3l5.5-25.5h-3.3l-4.2,21.5h-0.2l-4.8-21.5h-4l-4.9,21.5h-0.2
	l-4.3-21.5h-3.4L56.3,396.2z M96.3,383.4c0,8.4,3.7,13.2,9.9,13.2c4.9,0,8-3.1,8.8-8.5h-3.2c-0.8,3.6-2.3,5.6-5.6,5.6
	c-4.2,0-6.6-3.9-6.6-10.4s2.5-10.4,6.6-10.4c3.1,0,4.8,2,5.6,5.6h3.2c-0.8-5.4-3.7-8.5-8.8-8.5C100.2,370.2,96.3,375.1,96.3,383.4
	L96.3,383.4z M120.1,396.2h3.2l2-6.9h9.3l2,6.9h3.4l-8-25.5h-4L120.1,396.2z M130.1,374l3.7,12.4h-7.6L130,374H130.1z M146.6,396.2
	h3.2v-10.5h3.6c3.9,0,4.8,1.6,5.4,5.5l0.9,5h3.2l-1-5.4c-0.6-3.4-1.3-5.6-3.9-6.6V384c2.8-0.7,4.6-3.3,4.4-6.2
	c0-4.4-3.1-7.2-8.4-7.2h-7.6L146.6,396.2L146.6,396.2z M154.3,373.5c3.1,0,5,1.6,5,4.4s-1.8,4.8-5,4.8h-4.4v-9.2H154.3z
	 M170.9,396.2h13.5v-2.9h-10.3v-22.6h-3.2L170.9,396.2L170.9,396.2z M188.2,389.2c0,4.5,3,7.5,8.3,7.5s8.5-3.1,8.5-7.5
	c0-9.7-13.2-5.5-13.2-12.1c0-2.9,2.3-4.1,4.8-4.1s4.8,1.3,4.8,4.2h3.1c0-4.4-3.3-6.9-7.9-6.9c-4.9,0-8.1,3-8.1,7
	c0,9.5,13.2,5.2,13.2,12.1c0,3.1-2.2,4.6-5.3,4.6s-5.2-1.6-5.2-4.7L188.2,389.2L188.2,389.2z M213.1,396.2h8.5
	c5.3,0,8.3-3.1,8.3-7.5c0-2.9-2.1-5.4-5-5.9v-0.1c2.4-0.6,4.1-2.9,4-5.4c0-4.2-2.7-6.6-8-6.6h-7.8L213.1,396.2L213.1,396.2z
	 M220.8,373.5c3.4,0,4.8,1.5,4.8,3.7c0,2.6-1.6,4.3-4.8,4.3h-4.6v-8L220.8,373.5L220.8,373.5z M221.6,384.4c3.4,0,5,1.9,5,4.3
	c0,2.8-1.6,4.6-5,4.6h-5.3v-8.9L221.6,384.4L221.6,384.4z M237.6,396.2h15v-2.9h-11.8v-8.6h9.1v-2.9h-9.1v-8.2h11.4v-2.9h-14.7
	L237.6,396.2L237.6,396.2z M260.2,396.2h3.2v-10.5h3.6c3.9,0,4.8,1.6,5.5,5.5l0.9,5h3.2l-1-5.4c-0.6-3.4-1.3-5.6-3.9-6.6V384
	c2.8-0.7,4.6-3.3,4.5-6.2c0-4.4-3.1-7.2-8.4-7.2h-7.6V396.2L260.2,396.2z M267.9,373.5c3.1,0,5,1.6,5,4.4s-1.8,4.8-5,4.8h-4.5v-9.2
	H267.9z M293,385.5h5.9c-0.1,5.3-2.1,8.3-6.1,8.3c-4.2,0-6.8-4-6.8-10.4s2.5-10.4,6.9-10.4c2.3,0,4.4,1.2,5.6,3.3l2.5-1.6
	c-1.6-2.9-4.6-4.7-7.9-4.5c-6.5,0-10.4,5.2-10.4,13.3s3.9,13.1,10,13.1s9.3-4.2,9.3-12.1v-1.9h-9V385.5L293,385.5z M321.1,396.2h3.2
	v-10.6h8.8v-2.9h-8.8v-9.2h11.1v-2.9h-14.4V396.2L321.1,396.2z M340.5,383.4c0,8.4,3.9,13.2,10.1,13.2s10.2-4.9,10.2-13.2
	s-3.9-13.2-10.2-13.2S340.5,375,340.5,383.4L340.5,383.4z M343.9,383.4c0-6.4,2.5-10.4,6.8-10.4s6.8,3.9,6.8,10.4
	s-2.5,10.4-6.8,10.4S343.9,389.8,343.9,383.4L343.9,383.4z M368.4,387.2c0,6.6,3.5,9.4,8.7,9.4s8.7-2.8,8.7-9.4v-16.6h-3.2v16.7
	c0,4-1.7,6.3-5.5,6.3s-5.5-2.4-5.5-6.3v-16.7h-3.2L368.4,387.2L368.4,387.2z M394.4,396.2h3.2l-0.2-18.9h0.1l11.6,18.9h2.9v-25.5
	h-3.2l0.2,18.9h-0.1l-11.6-18.9h-2.9L394.4,396.2L394.4,396.2z M421,396.2h6.4c7.8,0,11.6-5.5,11.6-12.8s-3.8-12.7-11.6-12.7H421
	V396.2z M427.3,373.5c6.2,0,8.3,4.6,8.3,9.8s-2.1,9.9-8.3,9.9h-3v-19.7H427.3z M443.6,396.2h3.2l2-6.9h9.3l2,6.9h3.5l-8-25.5h-4
	L443.6,396.2z M453.6,374l3.7,12.4h-7.6l3.7-12.4H453.6z M465.1,373.5h7.2v22.7h3.3v-22.6h7.2v-2.9h-17.7L465.1,373.5L465.1,373.5z
	 M489.4,396.2h3.2v-25.5h-3.2L489.4,396.2L489.4,396.2z M500.4,383.4c0,8.4,3.9,13.2,10.1,13.2c6.3,0,10.2-4.9,10.2-13.2
	s-3.9-13.2-10.2-13.2C504.3,370.2,500.4,375,500.4,383.4L500.4,383.4z M503.8,383.4c0-6.4,2.5-10.4,6.8-10.4c4.3,0,6.8,3.9,6.8,10.4
	s-2.5,10.4-6.8,10.4C506.3,393.8,503.8,389.8,503.8,383.4L503.8,383.4z M528.4,396.2h3.2l-0.2-18.9h0.2l11.6,18.9h2.9v-25.5h-3.2
	l0.2,18.9h-0.2l-11.6-18.9h-2.9V396.2L528.4,396.2z"/>
</svg>
