<svg id="Layer_1" data-name="Layer 1" xmlns="http://www.w3.org/2000/svg" xmlns:xlink="http://www.w3.org/1999/xlink" viewBox="0 0 341 409"><defs><style>.cls-1,.cls-3{fill:#f5f5f5;}.cls-1,.cls-2,.cls-4,.cls-5{stroke:#b1b1b1;stroke-miterlimit:10;stroke-width:2px;}.cls-2{fill:url(#linear-gradient);}.cls-4{fill:none;}.cls-5,.cls-9{fill:#fff;}.cls-6{fill:url(#linear-gradient-2);}.cls-7{fill:#d9d9d9;}.cls-8{fill:#3c3c3b;}.cls-10{fill:#9c9b9b;}.cls-11{fill:#6f6f6e;}</style><linearGradient id="linear-gradient" x1="235.79" y1="354.55" x2="235.79" y2="299.32" gradientTransform="matrix(1, 0, 0, -1, -130.75, 418.27)" gradientUnits="userSpaceOnUse"><stop offset="0" stop-color="#fff"/><stop offset="1" stop-color="#ececec"/></linearGradient><linearGradient id="linear-gradient-2" x1="2306.74" y1="98.28" x2="2306.74" y2="155.71" gradientTransform="matrix(-1, 0, 0, 1, 2477.39, 228.06)" gradientUnits="userSpaceOnUse"><stop offset="0" stop-color="#f5f5f5"/><stop offset="1" stop-color="#d9d9d9"/></linearGradient></defs><title>stuen</title><rect class="cls-1" x="48.59" y="65.05" width="243.03" height="125.33" transform="translate(340.21 255.43) rotate(-180)"/><rect class="cls-2" x="48.59" y="65.05" width="112.89" height="55.01"/><rect class="cls-1" x="2.5" y="190.42" width="335.88" height="108.11" transform="translate(340.87 488.94) rotate(-180)"/><rect class="cls-3" x="49.55" y="142.89" width="241.16" height="105.64" transform="translate(340.26 391.41) rotate(-180)"/><line class="cls-4" x1="48.59" y1="73.68" x2="179.87" y2="73.68"/><line class="cls-4" x1="48.59" y1="81.38" x2="179.87" y2="81.38"/><line class="cls-4" x1="48.59" y1="96.79" x2="180.01" y2="96.79"/><line class="cls-4" x1="48.59" y1="89.09" x2="179.63" y2="89.09"/><line class="cls-4" x1="48.59" y1="104.5" x2="180.16" y2="104.5"/><line class="cls-4" x1="48.59" y1="112.2" x2="179.87" y2="112.2"/><rect class="cls-5" x="48.59" y="2.35" width="243.03" height="62.7" transform="translate(340.21 67.4) rotate(-180)"/><path class="cls-5" d="M179.61,120.52V64.68s-8.24-10.47-18.34,0v55.83"/><line class="cls-4" x1="50.05" y1="120.06" x2="180.63" y2="120.52"/><rect class="cls-6" x="86.41" y="326.17" width="168.48" height="57.55"/><rect class="cls-7" x="86.68" y="376.83" width="167.94" height="28.8"/><rect class="cls-4" x="86.68" y="299.87" width="167.94" height="105.76"/><line class="cls-4" x1="254.5" y1="337.05" x2="86.81" y2="337.05"/><line class="cls-4" x1="254.5" y1="344.73" x2="86.81" y2="344.73"/><line class="cls-4" x1="254.5" y1="360.04" x2="86.81" y2="360.04"/><line class="cls-4" x1="254.5" y1="352.13" x2="86.81" y2="352.13"/><line class="cls-4" x1="254.5" y1="367.95" x2="86.81" y2="367.95"/><line class="cls-4" x1="254.5" y1="375.58" x2="86.81" y2="375.58"/><rect class="cls-3" x="188.62" y="211.93" width="59.34" height="118.07"/><rect class="cls-3" x="87.69" y="300.89" width="165.91" height="35.18"/><rect class="cls-4" x="166.54" y="314.33" width="8.23" height="70.51"/><rect class="cls-3" x="92.92" y="211.93" width="59.34" height="118.07"/><circle class="cls-8" cx="170.1" cy="142.13" r="13.85"/><path class="cls-9" d="M173.39,139.59v1.14a1.53,1.53,0,1,0-2,0v-1.14A1,1,0,0,1,173.39,139.59Zm4.43-4H162.39a0.9,0.9,0,0,0-.9.9v9.92a0.9,0.9,0,0,0,.9.9h8.67L169.71,146h-6.86v-9h14.52v9h-0.72v0.55a2.65,2.65,0,0,1-.12.8h1.3a0.9,0.9,0,0,0,.9-0.9V136.5A0.9,0.9,0,0,0,177.82,135.6Zm-8.54,9.23a0.51,0.51,0,0,1,.72-0.72l1.66,1.66h0.2v-6.18a0.51,0.51,0,1,1,1,0V144h0.2v-2.14a0.51,0.51,0,0,1,1,0v2.46h0.2v-2.43a0.51,0.51,0,0,1,.81.41v2.35h0.2v-1.8a0.51,0.51,0,0,1,.81.41v3.24a2.14,2.14,0,0,1-3.65,1.51Z"/><path class="cls-10" d="M155.86,207.63h-1.31l-0.33-1.83a3.18,3.18,0,0,0-1.05-.55,4.84,4.84,0,0,0-1.53-.22,3.35,3.35,0,0,0-2.12.58,1.86,1.86,0,0,0-.74,1.53,1.67,1.67,0,0,0,.75,1.39,7.11,7.11,0,0,0,2.43,1A6.89,6.89,0,0,1,155,211a3.17,3.17,0,0,1,1,2.42,3,3,0,0,1-1.26,2.49,5.39,5.39,0,0,1-3.3.94,6.7,6.7,0,0,1-2.62-.48,5.28,5.28,0,0,1-1.87-1.27V212.7h1.3l0.33,1.84a4.21,4.21,0,0,0,1.2.68,4.68,4.68,0,0,0,1.66.26,3.45,3.45,0,0,0,2.07-.55,1.76,1.76,0,0,0,.76-1.5,1.9,1.9,0,0,0-.66-1.47,5.52,5.52,0,0,0-2.33-1,7.79,7.79,0,0,1-3.17-1.42,2.94,2.94,0,0,1-1.14-2.36,3.06,3.06,0,0,1,1.27-2.5,5.23,5.23,0,0,1,3.31-1,6.27,6.27,0,0,1,2.45.46,5.51,5.51,0,0,1,1.77,1.12v2.38Z"/><path class="cls-10" d="M160.74,204.84v2.29h1.8v1.28h-1.8v5.77a1.3,1.3,0,0,0,.28.94,1,1,0,0,0,.73.27,3.63,3.63,0,0,0,.51,0l0.48-.08,0.24,1.19a2.24,2.24,0,0,1-.72.26,4.61,4.61,0,0,1-.95.1,2.24,2.24,0,0,1-1.68-.64,2.76,2.76,0,0,1-.62-2v-5.77h-1.5v-1.28H159v-2.29h1.73Z"/><path class="cls-10" d="M171.11,215.24a3.22,3.22,0,0,1-1.16,1.18,3.18,3.18,0,0,1-1.63.41,3,3,0,0,1-2.42-1,4.61,4.61,0,0,1-.87-3.09V208.5l-1.09-.25v-1.12h2.82v5.63a3.54,3.54,0,0,0,.45,2.09,1.67,1.67,0,0,0,1.4.57,2.84,2.84,0,0,0,1.52-.37A2.33,2.33,0,0,0,171,214V208.5l-1.27-.25v-1.12h3v8.16l1.09,0.25v1.11h-2.65Z"/><path class="cls-10" d="M179.58,216.83a4,4,0,0,1-3.16-1.32,5,5,0,0,1-1.17-3.43v-0.39a4.87,4.87,0,0,1,1.21-3.38,3.72,3.72,0,0,1,2.86-1.35,3.61,3.61,0,0,1,2.91,1.16,4.61,4.61,0,0,1,1,3.09v1.08H177l0,0a3.76,3.76,0,0,0,.69,2.25,2.21,2.21,0,0,0,1.87.88,4.33,4.33,0,0,0,1.54-.25,3.53,3.53,0,0,0,1.15-.69l0.68,1.13a4.14,4.14,0,0,1-1.35.83A5.39,5.39,0,0,1,179.58,216.83Zm-0.26-8.51a1.88,1.88,0,0,0-1.49.73,3.48,3.48,0,0,0-.76,1.84l0,0h4.39v-0.23a2.65,2.65,0,0,0-.54-1.71A1.94,1.94,0,0,0,179.32,208.32Z"/><path class="cls-10" d="M184.66,215.54l1.43-.25V208.5l-1.43-.25v-1.12h3l0.12,1.42a3.45,3.45,0,0,1,1.19-1.17,3.18,3.18,0,0,1,1.63-.42,3.11,3.11,0,0,1,2.38.9,4,4,0,0,1,.84,2.78v4.65l1.43,0.25v1.11h-4.6v-1.11l1.43-.25v-4.61a2.58,2.58,0,0,0-.5-1.78,2,2,0,0,0-1.52-.53,2.44,2.44,0,0,0-1.32.36,2.63,2.63,0,0,0-.92,1v5.58l1.43,0.25v1.11h-4.6v-1.11Z"/><path class="cls-11" d="M152.06,391.7v-0.62h2.55v0.62l-0.8.14v5.6l0.8,0.14v0.62h-2.55v-0.62l0.8-.14v-5.6Z"/><path class="cls-11" d="M155.24,397.57l0.8-.14v-3.77l-0.8-.14v-0.62h1.66l0.07,0.79a1.92,1.92,0,0,1,.66-0.65,1.76,1.76,0,0,1,.91-0.23,1.73,1.73,0,0,1,1.32.5,2.2,2.2,0,0,1,.47,1.55v2.58l0.8,0.14v0.62h-2.55v-0.62l0.8-.14v-2.56a1.43,1.43,0,0,0-.28-1,1.11,1.11,0,0,0-.84-0.29,1.36,1.36,0,0,0-.74.2,1.46,1.46,0,0,0-.51.55v3.1l0.8,0.14v0.62h-2.55v-0.62Z"/><path class="cls-11" d="M165.33,397.56a1.7,1.7,0,0,1-.63.55,1.91,1.91,0,0,1-.87.19,1.81,1.81,0,0,1-1.51-.7,2.92,2.92,0,0,1-.54-1.84v-0.1a3.52,3.52,0,0,1,.54-2.06,1.75,1.75,0,0,1,1.52-.78,1.87,1.87,0,0,1,.83.17,1.7,1.7,0,0,1,.61.5v-2.15l-0.8-.14v-0.62h1.76v6.87l0.8,0.14v0.62h-1.63Zm-2.59-1.81a2.25,2.25,0,0,0,.33,1.28,1.13,1.13,0,0,0,1,.48,1.28,1.28,0,0,0,.72-0.2,1.49,1.49,0,0,0,.48-0.55v-2.45a1.48,1.48,0,0,0-.48-0.53,1.27,1.27,0,0,0-.71-0.2,1.1,1.1,0,0,0-1,.57,3,3,0,0,0-.33,1.48v0.1Z"/><path class="cls-11" d="M167.77,395.64a3.47,3.47,0,0,1,.56-2.06,1.79,1.79,0,0,1,1.54-.78,1.87,1.87,0,0,1,.87.2,1.71,1.71,0,0,1,.63.57l0.09-.66h0.81v5.21a2.22,2.22,0,0,1-.57,1.61,2.16,2.16,0,0,1-1.63.59,3.64,3.64,0,0,1-.83-0.1,3.24,3.24,0,0,1-.78-0.29l0.25-.75a2.84,2.84,0,0,0,.63.23,2.91,2.91,0,0,0,.71.09,1.16,1.16,0,0,0,.94-0.36,1.57,1.57,0,0,0,.3-1v-0.5a1.7,1.7,0,0,1-.62.5,1.92,1.92,0,0,1-.83.17,1.84,1.84,0,0,1-1.53-.7,2.88,2.88,0,0,1-.56-1.84v-0.1Zm1,0.1a2.2,2.2,0,0,0,.34,1.28,1.17,1.17,0,0,0,1,.48,1.26,1.26,0,0,0,.73-0.2,1.49,1.49,0,0,0,.48-0.56v-2.43a1.51,1.51,0,0,0-.48-0.54,1.27,1.27,0,0,0-.72-0.2,1.12,1.12,0,0,0-1,.58,2.87,2.87,0,0,0-.34,1.48v0.1Z"/><path class="cls-11" d="M176.88,398.19c0-.14-0.05-0.27-0.07-0.39s0-.23,0-0.34a2.33,2.33,0,0,1-.7.59,2,2,0,0,1-2.15-.17,1.48,1.48,0,0,1-.43-1.13,1.32,1.32,0,0,1,.61-1.16,3,3,0,0,1,1.67-.41h1v-0.62a1,1,0,0,0-.29-0.74,1.16,1.16,0,0,0-.82-0.27,2,2,0,0,0-.64.09,1.19,1.19,0,0,0-.45.25l-0.1.56h-0.74v-1a2.84,2.84,0,0,1,.87-0.46,3.44,3.44,0,0,1,1.11-.17,2.22,2.22,0,0,1,1.46.46,1.61,1.61,0,0,1,.56,1.31v2.54c0,0.07,0,.13,0,0.2s0,0.13,0,.2l0.39,0.05v0.62h-1.26Zm-1.55-.7a1.71,1.71,0,0,0,.87-0.23,1.43,1.43,0,0,0,.57-0.55v-0.87h-1a1.46,1.46,0,0,0-.93.27,0.82,0.82,0,0,0-.34.66,0.65,0.65,0,0,0,.21.53A1,1,0,0,0,175.33,397.49Z"/><path class="cls-11" d="M178.79,397.57l0.8-.14v-3.77l-0.8-.14v-0.62h1.66l0.07,0.79a1.92,1.92,0,0,1,.66-0.65,1.76,1.76,0,0,1,.91-0.23,1.73,1.73,0,0,1,1.32.5,2.2,2.2,0,0,1,.47,1.55v2.58l0.8,0.14v0.62h-2.55v-0.62l0.8-.14v-2.56a1.43,1.43,0,0,0-.28-1,1.11,1.11,0,0,0-.84-0.29,1.36,1.36,0,0,0-.74.2,1.46,1.46,0,0,0-.51.55v3.1l0.8,0.14v0.62h-2.55v-0.62Z"/><path class="cls-11" d="M185.33,395.64a3.47,3.47,0,0,1,.56-2.06,1.79,1.79,0,0,1,1.54-.78,1.87,1.87,0,0,1,.87.2,1.71,1.71,0,0,1,.63.57l0.09-.66h0.81v5.21a2.22,2.22,0,0,1-.57,1.61,2.16,2.16,0,0,1-1.63.59,3.64,3.64,0,0,1-.83-0.1,3.24,3.24,0,0,1-.78-0.29l0.25-.75a2.84,2.84,0,0,0,.63.23,2.91,2.91,0,0,0,.71.09,1.16,1.16,0,0,0,.94-0.36,1.57,1.57,0,0,0,.3-1v-0.5a1.7,1.7,0,0,1-.62.5,1.92,1.92,0,0,1-.83.17,1.84,1.84,0,0,1-1.53-.7,2.88,2.88,0,0,1-.56-1.84v-0.1Zm1,0.1a2.2,2.2,0,0,0,.34,1.28,1.17,1.17,0,0,0,1,.48,1.26,1.26,0,0,0,.73-0.2,1.49,1.49,0,0,0,.48-0.56v-2.43a1.51,1.51,0,0,0-.48-0.54,1.27,1.27,0,0,0-.72-0.2,1.12,1.12,0,0,0-1,.58,2.87,2.87,0,0,0-.34,1.48v0.1Z"/></svg>