<svg id="Layer_1" data-name="Layer 1" xmlns="http://www.w3.org/2000/svg" xmlns:xlink="http://www.w3.org/1999/xlink" viewBox="0 0 341 301"><defs><style>.cls-1,.cls-3{fill:#f5f5f5;}.cls-1,.cls-2,.cls-5,.cls-6{stroke:#b1b1b1;stroke-miterlimit:10;stroke-width:2px;}.cls-2{fill:url(#linear-gradient);}.cls-4{fill:url(#linear-gradient-2);}.cls-5{fill:none;}.cls-6,.cls-9{fill:#fff;}.cls-7{fill:#9c9b9b;}.cls-8{fill:#3c3c3b;}</style><linearGradient id="linear-gradient" x1="235.29" y1="-90.82" x2="235.29" y2="-146.05" gradientTransform="matrix(1, 0, 0, -1, -130.75, -26.73)" gradientUnits="userSpaceOnUse"><stop offset="0" stop-color="#fff"/><stop offset="1" stop-color="#ececec"/></linearGradient><linearGradient id="linear-gradient-2" x1="208.48" y1="360.78" x2="208.48" y2="417.23" gradientTransform="translate(442.9 481.84) rotate(-180)" gradientUnits="userSpaceOnUse"><stop offset="0" stop-color="#d9d9d9"/><stop offset="1" stop-color="#f5f5f5"/></linearGradient></defs><title>sktelisabeth trapper</title><rect class="cls-1" x="48.38" y="65.42" width="243.03" height="125.33" transform="translate(339.79 256.17) rotate(-180)"/><rect class="cls-2" x="48.38" y="65.42" width="112.31" height="55.01"/><rect class="cls-1" x="2.29" y="190.78" width="335.88" height="108.11" transform="translate(340.46 489.67) rotate(-180)"/><rect class="cls-3" x="49.39" y="143.25" width="241.04" height="105.64" transform="translate(339.83 392.14) rotate(-180)"/><rect class="cls-4" x="178.94" y="65.42" width="110.98" height="55.01" transform="translate(468.85 185.84) rotate(180)"/><line class="cls-5" x1="48.38" y1="74.04" x2="290.53" y2="74.04"/><line class="cls-5" x1="48.38" y1="81.75" x2="290.53" y2="81.75"/><line class="cls-5" x1="48.38" y1="97.16" x2="290.79" y2="97.16"/><line class="cls-5" x1="48.38" y1="89.45" x2="290.08" y2="89.45"/><line class="cls-5" x1="48.38" y1="104.86" x2="291.05" y2="104.86"/><line class="cls-5" x1="48.38" y1="112.57" x2="290.53" y2="112.57"/><rect class="cls-6" x="48.38" y="2.72" width="243.03" height="62.7" transform="translate(339.79 68.14) rotate(-180)"/><path class="cls-6" d="M179.4,120.88V65.05s-8.24-10.47-18.34,0v55.83"/><line class="cls-5" x1="49.84" y1="120.42" x2="180.38" y2="120.97"/><path class="cls-7" d="M150.47,214.6l2-.25v-9.59l-2,0v-1.08l3.74-.81v11.44l2,0.25v1.11h-5.68V214.6Z"/><path class="cls-7" d="M159.83,215.71H158.1v-1.78h1.73v1.78Z"/><path class="cls-7" d="M173.69,209.19h-1.3L172.11,208a2.34,2.34,0,0,0-.8-0.48,3.06,3.06,0,0,0-1.08-.18,2,2,0,0,0-1.37.4,1.27,1.27,0,0,0-.45,1,1.09,1.09,0,0,0,.4.89,4.1,4.1,0,0,0,1.61.58,6.94,6.94,0,0,1,2.68,1,2.12,2.12,0,0,1,.88,1.78,2.46,2.46,0,0,1-1,2,4.29,4.29,0,0,1-2.68.78,6.92,6.92,0,0,1-1.94-.25,5.15,5.15,0,0,1-1.54-.72v-2.17h1.3l0.33,1.27a1.81,1.81,0,0,0,.81.4,4.51,4.51,0,0,0,1.05.12,2.44,2.44,0,0,0,1.45-.37,1.15,1.15,0,0,0,.52-1,1.18,1.18,0,0,0-.44-0.94,4.08,4.08,0,0,0-1.65-.64,6.92,6.92,0,0,1-2.61-1,2.07,2.07,0,0,1-.88-1.76,2.49,2.49,0,0,1,1-2,3.91,3.91,0,0,1,2.57-.82,6.24,6.24,0,0,1,1.94.28,4,4,0,0,1,1.43.78Z"/><path class="cls-7" d="M181.79,215.71q-0.08-.39-0.12-0.69t-0.06-.62a4.18,4.18,0,0,1-1.25,1.07,3.59,3.59,0,0,1-3.86-.3,2.66,2.66,0,0,1-.77-2,2.37,2.37,0,0,1,1.09-2.09,5.34,5.34,0,0,1,3-.73h1.78V209.2a1.72,1.72,0,0,0-.53-1.32,2.08,2.08,0,0,0-1.47-.49,3.59,3.59,0,0,0-1.15.17,2.15,2.15,0,0,0-.8.46l-0.18,1h-1.34v-1.85a5.14,5.14,0,0,1,1.57-.83,6.22,6.22,0,0,1,2-.31,4,4,0,0,1,2.62.83,2.89,2.89,0,0,1,1,2.36v4.58c0,0.12,0,.24,0,0.36s0,0.23,0,.35l0.7,0.1v1.11h-2.27ZM179,214.44a3.08,3.08,0,0,0,1.57-.41,2.56,2.56,0,0,0,1-1v-1.56h-1.85a2.63,2.63,0,0,0-1.68.49,1.48,1.48,0,0,0-.62,1.2,1.18,1.18,0,0,0,.39,1A1.76,1.76,0,0,0,179,214.44Z"/><path class="cls-7" d="M185.26,203.12V202h3.16v12.36l1.43,0.25v1.11h-4.6V214.6l1.43-.25v-11Z"/><circle class="cls-8" cx="170.45" cy="141.93" r="13.85"/><path class="cls-9" d="M173.73,139.39v1.14a1.53,1.53,0,1,0-2,0v-1.14A1,1,0,0,1,173.73,139.39Zm4.43-4H162.73a0.9,0.9,0,0,0-.9.9v9.92a0.9,0.9,0,0,0,.9.9h8.67L170,145.78h-6.86v-9h14.52v9H177v0.55a2.65,2.65,0,0,1-.12.8h1.3a0.9,0.9,0,0,0,.9-0.9V136.3A0.9,0.9,0,0,0,178.16,135.4Zm-8.54,9.23a0.51,0.51,0,0,1,.72-0.72l1.66,1.66h0.2v-6.18a0.51,0.51,0,1,1,1,0v4.43h0.2v-2.14a0.51,0.51,0,0,1,1,0v2.46h0.2v-2.43a0.51,0.51,0,0,1,.81.41v2.35h0.2v-1.8a0.51,0.51,0,0,1,.81.41v3.24a2.14,2.14,0,0,1-3.65,1.51Z"/></svg>