<svg id="Layer_1" data-name="Layer 1" xmlns="http://www.w3.org/2000/svg" xmlns:xlink="http://www.w3.org/1999/xlink" viewBox="0 0 341 301.77"><defs><style>.cls-1,.cls-3{fill:#fff;}.cls-1,.cls-2,.cls-5,.cls-6{stroke:#b1b1b1;stroke-miterlimit:10;stroke-width:2px;}.cls-2{fill:url(#linear-gradient);}.cls-4{fill:url(#linear-gradient-2);}.cls-5{fill:none;}.cls-6{fill:#f5f5f5;}.cls-7{fill:#9c9b9b;}.cls-8{fill:#3c3c3b;}</style><linearGradient id="linear-gradient" x1="235.47" y1="777.4" x2="235.47" y2="722.17" gradientTransform="matrix(1, 0, 0, -1, -130.75, 841.27)" gradientUnits="userSpaceOnUse"><stop offset="0" stop-color="#f5f5f5"/><stop offset="1" stop-color="#d9d9d9"/></linearGradient><linearGradient id="linear-gradient-2" x1="208.66" y1="360.56" x2="208.66" y2="417.01" gradientTransform="translate(443.27 481.4) rotate(180)" gradientUnits="userSpaceOnUse"><stop offset="0" stop-color="#f5f5f5"/><stop offset="1" stop-color="#fff"/></linearGradient></defs><title>sktelisabeth trapper</title><rect class="cls-1" x="48.56" y="65.19" width="243.03" height="125.33" transform="translate(340.16 255.72) rotate(-180)"/><rect class="cls-2" x="48.56" y="65.19" width="112.31" height="55.01"/><rect class="cls-1" x="2.47" y="190.56" width="335.88" height="108.11" transform="translate(340.82 489.23) rotate(-180)"/><rect class="cls-3" x="49.61" y="143.03" width="240.98" height="105.64" transform="translate(340.2 391.7) rotate(-180)"/><rect class="cls-4" x="179.12" y="65.19" width="110.98" height="55.01" transform="translate(469.21 185.4) rotate(-180)"/><line class="cls-5" x1="48.56" y1="73.82" x2="290.71" y2="73.82"/><line class="cls-5" x1="48.56" y1="81.53" x2="290.71" y2="81.53"/><line class="cls-5" x1="48.56" y1="96.94" x2="290.97" y2="96.94"/><line class="cls-5" x1="48.56" y1="89.23" x2="290.26" y2="89.23"/><line class="cls-5" x1="48.56" y1="104.64" x2="291.24" y2="104.64"/><line class="cls-5" x1="48.56" y1="112.35" x2="290.71" y2="112.35"/><rect class="cls-6" x="48.56" y="2.5" width="243.03" height="62.7" transform="translate(340.16 67.69) rotate(-180)"/><path class="cls-1" d="M179.58,120.66V64.83s-8.24-10.47-18.34,0v55.83"/><line class="cls-5" x1="50.02" y1="120.2" x2="180.57" y2="120.75"/><path class="cls-7" d="M149.18,214.33v-1.19l4.19-4.66a11.82,11.82,0,0,0,1.53-2,3.15,3.15,0,0,0,.4-1.51,2.39,2.39,0,0,0-.56-1.61,1.86,1.86,0,0,0-1.49-.65,2.53,2.53,0,0,0-2,.68,2.72,2.72,0,0,0-.62,1.92H149l0-.05a3.61,3.61,0,0,1,1.09-2.78,4.3,4.3,0,0,1,3.16-1.12,3.76,3.76,0,0,1,2.76,1,3.44,3.44,0,0,1,1,2.56,4.08,4.08,0,0,1-.62,2.09,13.69,13.69,0,0,1-1.75,2.26l-3.37,3.67,0,0h4.54L156,211.5h1.47v2.82h-8.29Z"/><path class="cls-7" d="M161.27,214.33h-1.73v-1.78h1.73v1.78Z"/><path class="cls-7" d="M175.13,207.8h-1.3l-0.28-1.14a2.34,2.34,0,0,0-.8-0.48,3.06,3.06,0,0,0-1.08-.18,2,2,0,0,0-1.37.4,1.27,1.27,0,0,0-.45,1,1.09,1.09,0,0,0,.4.89,4.1,4.1,0,0,0,1.61.58,6.94,6.94,0,0,1,2.68,1,2.12,2.12,0,0,1,.88,1.78,2.46,2.46,0,0,1-1,2,4.29,4.29,0,0,1-2.68.78,6.92,6.92,0,0,1-1.94-.25,5.15,5.15,0,0,1-1.54-.72v-2.17h1.3l0.33,1.27a1.81,1.81,0,0,0,.81.4,4.51,4.51,0,0,0,1.05.12,2.44,2.44,0,0,0,1.45-.37,1.15,1.15,0,0,0,.52-1,1.18,1.18,0,0,0-.44-0.94,4.08,4.08,0,0,0-1.65-.64,6.92,6.92,0,0,1-2.61-1,2.07,2.07,0,0,1-.88-1.76,2.49,2.49,0,0,1,1-2,3.91,3.91,0,0,1,2.57-.82,6.24,6.24,0,0,1,1.94.28,4,4,0,0,1,1.43.78Z"/><path class="cls-7" d="M183.24,214.33q-0.08-.39-0.12-0.69t-0.06-.62a4.18,4.18,0,0,1-1.25,1.07,3.59,3.59,0,0,1-3.86-.3,2.66,2.66,0,0,1-.77-2,2.37,2.37,0,0,1,1.09-2.09,5.34,5.34,0,0,1,3-.73H183v-1.11a1.72,1.72,0,0,0-.53-1.32A2.08,2.08,0,0,0,181,206a3.59,3.59,0,0,0-1.15.17,2.15,2.15,0,0,0-.8.46l-0.18,1h-1.34v-1.85a5.14,5.14,0,0,1,1.57-.83,6.22,6.22,0,0,1,2-.31,4,4,0,0,1,2.62.83,2.89,2.89,0,0,1,1,2.36v4.58c0,0.12,0,.24,0,0.36s0,0.23,0,.35l0.7,0.1v1.11h-2.27Zm-2.79-1.27a3.08,3.08,0,0,0,1.57-.41,2.56,2.56,0,0,0,1-1v-1.56H181.2a2.63,2.63,0,0,0-1.68.49,1.48,1.48,0,0,0-.62,1.2,1.18,1.18,0,0,0,.39,1A1.76,1.76,0,0,0,180.45,213.06Z"/><path class="cls-7" d="M186.71,201.73v-1.12h3.16V213l1.43,0.25v1.11h-4.6v-1.11l1.43-.25V202Z"/><circle class="cls-8" cx="170.08" cy="142.89" r="13.85"/><path class="cls-3" d="M173.37,140.35v1.14a1.53,1.53,0,1,0-2,0v-1.14A1,1,0,0,1,173.37,140.35Zm4.43-4H162.37a0.9,0.9,0,0,0-.9.9v9.92a0.9,0.9,0,0,0,.9.9H171l-1.35-1.35h-6.86v-9h14.52v9h-0.72v0.55a2.65,2.65,0,0,1-.12.8h1.3a0.9,0.9,0,0,0,.9-0.9v-9.92A0.9,0.9,0,0,0,177.79,136.36Zm-8.54,9.23a0.51,0.51,0,0,1,.72-0.72l1.66,1.66h0.2v-6.18a0.51,0.51,0,1,1,1,0v4.43h0.2v-2.14a0.51,0.51,0,0,1,1,0v2.46h0.2v-2.43a0.51,0.51,0,0,1,.81.41v2.35h0.2v-1.8a0.51,0.51,0,0,1,.81.41v3.24a2.14,2.14,0,0,1-3.65,1.51Z"/></svg>