<?xml version="1.0" encoding="UTF-8" standalone="no"?>
<svg width="512px" height="512px" viewBox="0 0 512 512" version="1.1" xmlns="http://www.w3.org/2000/svg" xmlns:xlink="http://www.w3.org/1999/xlink">
    <!-- Generator: Sketch 43.2 (39069) - http://www.bohemiancoding.com/sketch -->
    <title>Group</title>
    <desc>Created with Sketch.</desc>
    <defs>
        <linearGradient x1="50%" y1="100%" x2="50%" y2="0%" id="linearGradient-1">
            <stop stop-color="#330867" offset="0%"></stop>
            <stop stop-color="#30CFD0" offset="100%"></stop>
        </linearGradient>
    </defs>
    <g id="iOS-&amp;-Android" stroke="none" stroke-width="1" fill="none" fill-rule="evenodd">
        <g id="iTunesArtwork">
            <g id="Group">
                <rect id="Rectangle-7" fill="url(#linearGradient-1)" x="0" y="0" width="512" height="512"></rect>
                <g id="Page-1" transform="translate(59.000000, 177.000000)" fill="#FEFEFE">
                    <path d="M20.6883395,33.3903743 L14.9791707,39.6791444 L14.9791707,55.2513369 L4,55.2513369 L4,0.748663102 L14.9791707,0.748663102 L14.9791707,25.4545455 L19.8100058,18.6791444 L33.3875803,0.748663102 L46.8919603,0.748663102 L27.9711894,24.9679144 L47.4409188,55.2513369 L34.3757057,55.2513369 L20.6883395,33.3903743 Z M91.9065602,0.748663102 L91.9065602,36.6470588 C91.9065602,42.611438 90.0828162,47.3279684 86.4352735,50.7967914 C82.7877308,54.2656145 77.804457,56 71.4853027,56 C65.2637415,56 60.3231641,54.3155249 56.6634222,50.9465241 C53.0036804,47.5775233 51.13724,42.948336 51.0640452,37.0588235 L51.0640452,0.748663102 L62.0432159,0.748663102 L62.0432159,36.7219251 C62.0432159,40.2905704 62.8788444,42.8921487 64.5501265,44.526738 C66.2214087,46.1613272 68.5331109,46.9786096 71.4853027,46.9786096 C77.6580673,46.9786096 80.7931992,43.6595697 80.8907923,37.0213904 L80.8907923,0.748663102 L91.9065602,0.748663102 Z M144.240607,55.2513369 L133.261437,55.2513369 L111.888651,19.3903743 L111.888651,55.2513369 L100.90948,55.2513369 L100.90948,0.748663102 L111.888651,0.748663102 L133.298034,36.684492 L133.298034,0.748663102 L144.240607,0.748663102 L144.240607,55.2513369 Z M181.459996,40.9518717 C181.459996,38.8306489 180.728059,37.202323 179.264162,36.0668449 C177.800265,34.9313669 175.165291,33.7335179 171.359159,32.473262 C167.553027,31.2130062 164.539885,29.9714856 162.319642,28.7486631 C156.268869,25.4046179 153.243527,20.9002066 153.243527,15.2352941 C153.243527,12.2905379 154.054758,9.66400441 155.677244,7.35561497 C157.299729,5.04722553 159.62973,3.24421326 162.667316,1.94652406 C165.704901,0.648834866 169.11451,0 172.896243,0 C176.702374,0 180.093684,0.704984037 183.070274,2.11497326 C186.046865,3.52496249 188.358567,5.51513866 190.005451,8.0855615 C191.652334,10.6559843 192.475764,13.5757412 192.475764,16.8449198 L181.496593,16.8449198 C181.496593,14.3493636 180.728059,12.4090978 179.190967,11.0240642 C177.653876,9.63903051 175.494661,8.94652406 172.713257,8.94652406 C170.029446,8.94652406 167.943424,9.52673217 166.455129,10.6871658 C164.966834,11.8475994 164.222698,13.3761046 164.222698,15.2727273 C164.222698,17.0445721 165.094923,18.5294058 166.8394,19.7272727 C168.583877,20.9251397 171.151758,22.0481231 174.543119,23.0962567 C180.789078,25.0178349 185.339289,27.4010553 188.193887,30.2459893 C191.048486,33.0909233 192.475764,36.6345599 192.475764,40.8770053 C192.475764,45.5936065 190.731313,49.293213 187.242359,51.9759358 C183.753405,54.6586587 179.056807,56 173.152424,56 C169.053513,56 165.320632,55.232628 161.953669,53.697861 C158.586707,52.1630939 156.018827,50.0606194 154.249951,47.3903743 C152.481076,44.7201293 151.596652,41.625686 151.596652,38.1069519 L162.61242,38.1069519 C162.61242,44.1212422 166.125719,47.1283422 173.152424,47.1283422 C175.763039,47.1283422 177.800265,46.5855669 179.264162,45.5 C180.728059,44.4144331 181.459996,42.8984055 181.459996,40.9518717 Z M240.015573,9.84491979 L223.693206,9.84491979 L223.693206,55.2513369 L212.714035,55.2513369 L212.714035,9.84491979 L196.611252,9.84491979 L196.611252,0.748663102 L240.015573,0.748663102 L240.015573,9.84491979 Z M278.332879,31.631016 L257.252871,31.631016 L257.252871,46.2299465 L281.992603,46.2299465 L281.992603,55.2513369 L246.273701,55.2513369 L246.273701,0.748663102 L281.919408,0.748663102 L281.919408,9.84491979 L257.252871,9.84491979 L257.252871,22.8342246 L278.332879,22.8342246 L278.332879,31.631016 Z M331.764843,55.2513369 L320.785673,55.2513369 L299.412887,19.3903743 L299.412887,55.2513369 L288.433716,55.2513369 L288.433716,0.748663102 L299.412887,0.748663102 L320.82227,36.684492 L320.82227,0.748663102 L331.764843,0.748663102 L331.764843,55.2513369 Z M368.984232,40.9518717 C368.984232,38.8306489 368.252295,37.202323 366.788398,36.0668449 C365.324501,34.9313669 362.689527,33.7335179 358.883395,32.473262 C355.077263,31.2130062 352.064121,29.9714856 349.843878,28.7486631 C343.793105,25.4046179 340.767763,20.9002066 340.767763,15.2352941 C340.767763,12.2905379 341.578994,9.66400441 343.201479,7.35561497 C344.823965,5.04722553 347.153966,3.24421326 350.191551,1.94652406 C353.229137,0.648834866 356.638746,0 360.420479,0 C364.22661,0 367.61792,0.704984037 370.59451,2.11497326 C373.5711,3.52496249 375.882803,5.51513866 377.529687,8.0855615 C379.17657,10.6559843 380,13.5757412 380,16.8449198 L369.020829,16.8449198 C369.020829,14.3493636 368.252295,12.4090978 366.715203,11.0240642 C365.178112,9.63903051 363.018897,8.94652406 360.237493,8.94652406 C357.553682,8.94652406 355.46766,9.52673217 353.979365,10.6871658 C352.49107,11.8475994 351.746934,13.3761046 351.746934,15.2727273 C351.746934,17.0445721 352.619159,18.5294058 354.363636,19.7272727 C356.108113,20.9251397 358.675994,22.0481231 362.067354,23.0962567 C368.313314,25.0178349 372.863525,27.4010553 375.718123,30.2459893 C378.572722,33.0909233 380,36.6345599 380,40.8770053 C380,45.5936065 378.255549,49.293213 374.766595,51.9759358 C371.277641,54.6586587 366.581043,56 360.67666,56 C356.577749,56 352.844868,55.232628 349.477905,53.697861 C346.110943,52.1630939 343.543063,50.0606194 341.774187,47.3903743 C340.005312,44.7201293 339.120888,41.625686 339.120888,38.1069519 L350.136656,38.1069519 C350.136656,44.1212422 353.649955,47.1283422 360.67666,47.1283422 C363.287275,47.1283422 365.324501,46.5855669 366.788398,45.5 C368.252295,44.4144331 368.984232,42.8984055 368.984232,40.9518717 Z" id="KUNSTENS"></path>
                    <path d="M21.6835717,137.682927 L21.976593,138.817073 L22.3062419,137.682927 L39.0817078,91 L44.0264413,91 L24.1742523,144.268293 L19.852189,144.268293 L0,91 L4.90810577,91 L21.6835717,137.682927 Z M81.313394,118.731707 L56.369961,118.731707 L56.369961,140.463415 L85.0494148,140.463415 L85.0494148,144.268293 L51.8647594,144.268293 L51.8647594,91 L84.8662765,91 L84.8662765,94.8414634 L56.369961,94.8414634 L56.369961,114.926829 L81.313394,114.926829 L81.313394,118.731707 Z M118.08756,91 L122.629389,91 L122.629389,128.426829 C122.629389,133.475635 121.170402,137.499985 118.252384,140.5 C115.334366,143.500015 111.421351,145 106.513221,145 C101.336486,145 97.3563208,143.646355 94.5726051,140.939024 C91.7888894,138.231694 90.3970524,134.451244 90.3970524,129.597561 L94.902254,129.597561 C94.902254,133.451239 95.915609,136.347551 97.9423494,138.286585 C99.9690897,140.225619 102.826018,141.195122 106.513221,141.195122 C109.9074,141.195122 112.672761,140.073182 114.809384,137.829268 C116.946008,135.585355 118.038722,132.536605 118.08756,128.682927 L118.08756,91 Z M165.263979,118.731707 L140.320546,118.731707 L140.320546,140.463415 L169,140.463415 L169,144.268293 L135.815345,144.268293 L135.815345,91 L168.816862,91 L168.816862,94.8414634 L140.320546,94.8414634 L140.320546,114.926829 L165.263979,114.926829 L165.263979,118.731707 Z" id="VEJE"></path>
                    <path d="M402.31291,183.6383 L351.003206,168.333838 C346.794262,167.078834 342.191169,169.461931 340.900802,173.809789 L311.334963,273.274695 C310.077442,277.495643 312.461102,282.102023 316.801429,283.39933 L367.97975,298.66619 C372.193386,299.921193 376.791787,297.538097 378.086847,293.185538 L407.652685,193.725332 C408.943053,189.372773 406.521854,184.893304 402.31291,183.6383 Z M366.820765,179.172932 L383.159164,184.047234 C383.665926,184.197646 383.938077,184.695887 383.783233,185.20823 C383.633081,185.715872 383.135703,185.983794 382.62894,185.833381 L366.290542,180.96848 C365.779087,180.813367 365.511629,180.315126 365.661781,179.807484 C365.685242,179.252838 366.309311,179.022519 366.820765,179.172932 Z M343.598843,287.211345 C341.426333,286.562691 340.300194,284.283003 340.910186,282.233634 C341.553024,280.062055 343.833455,278.929262 345.874582,279.540312 C347.920401,280.151362 349.17323,282.468654 348.563238,284.518023 C347.957939,286.567392 345.76666,287.859998 343.598843,287.211345 L343.598843,287.211345 Z M374.661508,285.063268 L318.762788,268.390992 L345.062823,179.924994 L400.961543,196.597269 L374.661508,285.063268 Z" id="Fill-2"></path>
                    <path d="M325.569869,169.982329 C325.586423,169.866078 325.631642,169.605384 325.71186,169.221458 C325.850555,168.557659 326.036915,167.811877 326.27696,167.005427 C326.964138,164.696792 327.93772,162.388936 329.238411,160.250189 C331.468405,156.583376 334.419951,153.806167 338.20977,152.216599 C342.909468,150.245399 348.792065,150.143397 356.05421,152.337587 C357.271155,152.705275 358.547946,151.990282 358.906003,150.740605 C359.264061,149.490928 358.567795,148.179794 357.350851,147.812106 C349.136323,145.330162 342.192339,145.450569 336.472784,147.849528 C331.72104,149.842558 328.052819,153.294109 325.342077,157.751424 C323.811741,160.26778 322.681272,162.947532 321.883861,165.626507 C321.604299,166.56572 321.385601,167.440912 321.220345,168.231832 C321.118192,168.720737 321.05527,169.083494 321.024474,169.299751 C320.840923,170.588688 321.709646,171.786379 322.964822,171.974868 C324.219998,172.163356 325.386317,171.271266 325.569869,169.982329 Z" id="Stroke-3" fill-rule="nonzero"></path>
                    <path d="M303.591889,167.962085 C303.59989,167.905615 303.620516,167.773926 303.655346,167.5721 C303.715827,167.221642 303.793675,166.811089 303.890453,166.345532 C304.170056,165.000488 304.544198,163.495545 305.025125,161.871502 C306.400547,157.226844 308.34951,152.58297 310.962504,148.264095 C315.482366,140.793462 321.501641,135.100131 329.249553,131.833224 C338.777751,127.815658 350.604744,127.60906 365.040082,131.992776 C366.262904,132.364122 367.545826,131.641897 367.905571,130.379642 C368.265315,129.117386 367.565653,127.793091 366.342832,127.421745 C350.950509,122.747412 338.057016,122.97264 327.504076,127.422288 C318.789672,131.096717 312.050321,137.471132 307.047416,145.740161 C304.203672,150.440431 302.097065,155.459929 300.610874,160.478641 C300.090237,162.236778 299.6836,163.87243 299.377307,165.345869 C299.190517,166.244431 299.077393,166.899935 299.024599,167.272552 C298.840138,168.574447 299.713026,169.784199 300.974248,169.974608 C302.235471,170.165017 303.407428,169.26398 303.591889,167.962085 Z" id="Stroke-4" fill-rule="nonzero"></path>
                </g>
            </g>
        </g>
    </g>
</svg>