<svg viewBox="0 0 177 52" xmlns="http://www.w3.org/2000/svg" xmlns:xlink="http://www.w3.org/1999/xlink"><defs><path id="a" d="M176.92 25.925V0H0V51.85h176.92V25.926z" /><path id="c" d="M0 51.852h176.92V0H0z" /></defs><g transform="translate(.01)" fill="none" fill-rule="evenodd"><g><mask id="b" fill="#fff"><use xlink:href="#a" /></mask><g /><path d="M170.367 51.85H6.553C2.95 51.85 0 48.935 0 45.37V6.48C0 2.917 2.95 0 6.553 0h163.814c3.604 0 6.552 2.916 6.552 6.48v38.89c0 3.564-2.95 6.48-6.553 6.48" fill="#000" mask="url(#b)" /></g><path d="M170.367 0H6.553C2.95 0 0 2.917 0 6.482V45.37c0 3.565 2.95 6.482 6.553 6.482h163.814c3.604 0 6.552-2.917 6.552-6.482V6.482c0-3.565-2.95-6.482-6.553-6.482m0 1.037c3.035 0 5.504 2.442 5.504 5.445V45.37c0 3.002-2.468 5.444-5.503 5.444H6.553c-3.036 0-5.505-2.442-5.505-5.444V6.482c0-3.003 2.47-5.445 5.505-5.445h163.814" fill="#A6A6A6" /><mask id="d" fill="#fff"><use xlink:href="#c" /></mask><g /><path d="M140.14 38.89h2.446V22.683h-2.445V38.89zm22.027-10.37l-2.803 7.027h-.084l-2.91-7.026h-2.634l4.363 9.82-2.488 5.463h2.55l6.724-15.282h-2.72zM148.3 37.05c-.803 0-1.92-.397-1.92-1.377 0-1.25 1.39-1.728 2.593-1.728 1.074 0 1.58.23 2.234.542-.19 1.5-1.497 2.564-2.908 2.564zm.294-8.88c-1.77 0-3.605.77-4.364 2.48l2.17.896c.465-.897 1.33-1.19 2.236-1.19 1.264 0 2.55.752 2.57 2.086v.167c-.442-.25-1.39-.625-2.55-.625-2.34 0-4.72 1.272-4.72 3.648 0 2.17 1.918 3.565 4.067 3.565 1.644 0 2.55-.73 3.12-1.584h.084v1.25h2.36V32.65c0-2.876-2.17-4.48-4.973-4.48zm-15.113 2.326h-3.477v-5.556h3.478c1.83 0 2.867 1.5 2.867 2.778 0 1.256-1.038 2.778-2.866 2.778zm-.062-7.81h-5.86V38.89h2.445v-6.14h3.415c2.71 0 5.374-1.942 5.374-5.034 0-3.092-2.664-5.032-5.374-5.032zM101.466 37.05c-1.69 0-3.103-1.398-3.103-3.32 0-1.94 1.414-3.362 3.103-3.362 1.67 0 2.977 1.42 2.977 3.363 0 1.922-1.308 3.32-2.977 3.32zm2.808-7.622h-.084c-.55-.646-1.604-1.232-2.935-1.232-2.787 0-5.34 2.422-5.34 5.535 0 3.09 2.553 5.493 5.34 5.493 1.33 0 2.386-.584 2.935-1.253h.084v.793c0 2.11-1.14 3.237-2.977 3.237-1.5 0-2.428-1.064-2.808-1.963l-2.133.878c.612 1.462 2.238 3.257 4.94 3.257 2.872 0 5.3-1.67 5.3-5.742v-9.9h-2.323v.898zm4.01 9.46h2.45V22.684h-2.45V38.89zm6.06-5.345c-.062-2.13 1.67-3.216 2.914-3.216.973 0 1.796.48 2.07 1.17l-4.983 2.046zm7.602-1.838c-.465-1.233-1.88-3.51-4.772-3.51-2.87 0-5.256 2.235-5.256 5.515 0 3.09 2.364 5.513 5.53 5.513 2.556 0 4.033-1.545 4.646-2.443l-1.9-1.254c-.635.92-1.5 1.525-2.746 1.525-1.245 0-2.132-.563-2.702-1.67l7.453-3.05-.254-.625zM62.57 29.89v2.337h5.657c-.17 1.316-.612 2.276-1.287 2.944-.825.816-2.113 1.713-4.37 1.713-3.486 0-6.21-2.776-6.21-6.223 0-3.446 2.724-6.222 6.21-6.222 1.878 0 3.25.73 4.264 1.67l1.668-1.65c-1.416-1.336-3.293-2.36-5.933-2.36-4.772 0-8.784 3.843-8.784 8.562 0 4.72 4.012 8.563 8.783 8.563 2.574 0 4.516-.836 6.037-2.402 1.562-1.544 2.048-3.715 2.048-5.47 0-.544-.042-1.044-.127-1.46h-7.96zm14.517 7.16c-1.688 0-3.145-1.377-3.145-3.34 0-1.985 1.457-3.342 3.145-3.342 1.69 0 3.147 1.357 3.147 3.342 0 1.963-1.458 3.34-3.147 3.34zm0-8.854c-3.082 0-5.595 2.32-5.595 5.514 0 3.173 2.513 5.513 5.595 5.513s5.596-2.34 5.596-5.513c0-3.195-2.514-5.514-5.596-5.514zm12.206 8.855c-1.69 0-3.146-1.377-3.146-3.34 0-1.985 1.457-3.342 3.146-3.342 1.69 0 3.145 1.357 3.145 3.342 0 1.963-1.456 3.34-3.145 3.34zm0-8.854c-3.082 0-5.594 2.32-5.594 5.514 0 3.173 2.51 5.513 5.593 5.513 3.082 0 5.595-2.34 5.595-5.513 0-3.195-2.513-5.514-5.595-5.514z" fill="#FFF" mask="url(#d)" /><path d="M13.676 9.77c-.382.4-.607 1.02-.607 1.823V40.26c0 .805.224 1.423.606 1.823l.097.093 16.236-16.06v-.378L13.772 9.678l-.097.093z" fill="#00D2FF" mask="url(#d)" /><path d="M35.42 31.472l-5.41-5.355v-.38l5.41-5.353.123.068 6.413 3.604c1.832 1.03 1.832 2.713 0 3.744l-6.413 3.603-.123.07z" fill="#FFBD00" mask="url(#d)" /><path d="M35.543 31.402l-5.534-5.475-16.334 16.155c.603.633 1.6.71 2.723.08l19.143-10.76" fill="#FF3A44" mask="url(#d)" /><path d="M35.543 20.452L16.4 9.692c-1.124-.63-2.12-.553-2.724.08L30.01 25.926l5.533-5.475z" fill="#00F076" mask="url(#d)" /><path fill="#FFF" mask="url(#d)" d="M58.95 13.63l.03 1.093-3.648-5.777H53.9v8.035h1.27v-4.976l-.03-1.093 3.825 6.07h1.258V8.947H58.95M66.396 14.006c0 .58-.155 1.056-.46 1.41-.296.347-.736.525-1.31.525-.58 0-1.008-.172-1.31-.523-.304-.355-.458-.83-.458-1.41v-5.06h-1.27v5.015c0 .943.282 1.72.84 2.305.562.59 1.303.888 2.2.888.927 0 1.675-.297 2.22-.884.545-.58.82-1.36.82-2.308V8.946h-1.272v5.06zM75.774 11.39c0 .307-.115.585-.35.846-.23.256-.534.38-.925.38h-1.562V10.16h1.56c.392 0 .695.124.925.38.236.26.35.54.35.85m.522-1.755c-.51-.458-1.12-.69-1.817-.69h-2.81v8.036h1.27v-3.15h1.54c.697 0 1.308-.23 1.817-.69.513-.462.773-1.05.773-1.75 0-.704-.26-1.294-.773-1.755M80.534 8.853c-.064.062-.134.092-.215.092h-.035c-.076-.005-.14-.036-.193-.093-.055-.06-.08-.13-.08-.212 0-.083.03-.15.092-.214.064-.062.133-.092.215-.092.08 0 .15.03.214.092.063.064.093.13.093.214 0 .082-.03.15-.093.213zm-.215 1.77l1.118 3.06h-2.24l1.12-3.06zm.89-1.078c.253-.246.383-.55.383-.905 0-.346-.126-.645-.375-.89-.246-.245-.55-.37-.9-.37-.355 0-.66.122-.903.365-.245.24-.368.54-.368.895 0 .362.128.667.38.906l-2.834 7.436h1.403l.768-2.108h3.12l.76 2.108h1.4L81.21 9.545z" /></g></svg>